{"title":"Beethoven's Big Break 2008 DVDrip English Klam","uid":6511007,"size":1466075822,"categoryP":"video","categoryS":"movies","magnet":"?xt=urn:btih:af9137ba02b6f7a0086cdf554473b4671e22bbf3&amp;dn=Beethoven%5C%27s+Big+Break+2008+DVDrip+English+Klam&amp;tr=udp%3A%2F%2Ftracker.openbittorrent.com%3A80&amp;tr=udp%3A%2F%2Fopen.demonii.com%3A1337&amp;tr=udp%3A%2F%2Ftracker.coppersurfer.tk%3A6969&amp;tr=udp%3A%2F%2Fexodus.desync.com%3A6969","seeders":2,"leechers":1,"uploader":"Klambake","files":-1,"time":1309621291,"description":"With: Jonathan Silverman, Rhea Perlman and Moises Arias\n\nEddie is een vermoeide dierentrainer en een alleenstaande vader. Opeens wordt hij het mikpunt van een grote Sint-Bernard. Deze hond is door een filmauditie al snel een ware ster geworden. Een drietal komt met een plan de beroemde hond te ontvoeren en vervolgens losgeld te eisen.\n\nEddie, a struggling animal trainer and single dad suddenly finds himself the personal wrangler for a large and lovable St...\n\n------------------ Dutch Friends ------------------\nYou can find my Friends at: http://www.Film-Test.nl \n------ They got my dutchs subs ---- and more ------\n\nGeneral:\n\nComplete name                    : Beethoven 6th\\Beethoven 6th.avi\nFormat                           : AVI\nFormat/Info                      : Audio Video Interleave\nFile size                        : 1.36 GiB\nDuration                         : 1h 36mn\nOverall bit rate                 : 2 015 Kbps\n\nVideo:\n\nFormat                           : MPEG-4 Visual\nFormat profile                   : Simple@L3\nFormat settings, BVOP            : No\nFormat settings, QPel            : No\nFormat settings, GMC             : No warppoints\nFormat settings, Matrix          : Default (H.263)\nCodec ID                         : XVID\nCodec ID/Hint                    : XviD\nDuration                         : 1h 36mn\nBit rate                         : 1 620 Kbps\nWidth                            : 640 pixels\nHeight                           : 480 pixels\nDisplay aspect ratio             : 4:3\nFrame rate                       : 25.000 fps\nColor space                      : YUV\nChroma subsampling               : 4:2:0\nBit depth                        : 8 bits\nScan type                        : Progressive\nBits/(Pixel*Frame)               : 0.211\nStream size                      : 1.10 GiB (80%)\nWriting library                  : XviD 1.1.2 (UTC 2006-11-01)\n\nAudio:\n\nFormat                           : AC-3\nFormat/Info                      : Audio Coding 3\nMode extension                   : CM (complete main)\nCodec ID                         : 2000\nDuration                         : 1h 36mn\nBit rate mode                    : Constant\nBit rate                         : 384 Kbps\nChannel(s)                       : 6 channels\nChannel positions                : Front: L C R, Side: L R, LFE\nSampling rate                    : 48.0 KHz\nBit depth                        : 16 bits\nStream size                      : 266 MiB (19%)\nAlignment                        : Aligned on interleaves\nInterleave, duration             : 32 ms (0.80 video frame)\nInterleave, preload duration     : 64 ms\n\n","torrent":{"xt":"urn:btih:af9137ba02b6f7a0086cdf554473b4671e22bbf3","amp;dn":"Beethoven%5C%27s+Big+Break+2008+DVDrip+English+Klam","amp;tr":["udp%3A%2F%2Ftracker.openbittorrent.com%3A80","udp%3A%2F%2Fopen.demonii.com%3A1337","udp%3A%2F%2Ftracker.coppersurfer.tk%3A6969","udp%3A%2F%2Fexodus.desync.com%3A6969"],"infoHash":"af9137ba02b6f7a0086cdf554473b4671e22bbf3","infoHashBuffer":{"type":"Buffer","data":[175,145,55,186,2,182,247,160,8,108,223,85,68,115,180,103,30,34,187,243]},"announce":[],"urlList":[]}}